HIERARCHY
ROOT Hips
{
  OFFSET 0 0 0
  CHANNELS 6 Xposition Yposition Zposition Zrotation Yrotation Xrotation
  JOINT LeftThigh
  {
    OFFSET 8.409438 0 -5.917753
    CHANNELS 3 Zrotation Yrotation Xrotation
    JOINT LeftLeg
    {
      OFFSET 0 0 -42.358652
      CHANNELS 3 Zrotation Yrotation Xrotation
      JOINT LeftFoot
      {
        OFFSET 0 0 -39.357303
        CHANNELS 3 Zrotation Yrotation Xrotation
      }
    }
  }
  JOINT RightThigh
  {
    OFFSET -8.409438 0 -5.917753
    CHANNELS 3 Zrotation Yrotation Xrotation
    JOINT RightLeg
    {
      OFFSET 0 0 -42.358652
      CHANNELS 3 Zrotation Yrotation Xrotation
      JOINT RightFoot
      {
        OFFSET 0 0 -39.357303
        CHANNELS 3 Zrotation Yrotation Xrotation
      }
    }
  }
  JOINT SpineLow
  {
    OFFSET 0 0 4.719101
    CHANNELS 3 Zrotation Yrotation Xrotation
    JOINT SpineMid
    {
      OFFSET 0 0 12.899191
      CHANNELS 3 Zrotation Yrotation Xrotation
      JOINT Chest
      {
        OFFSET 0 0 12.899191
        CHANNELS 3 Zrotation Yrotation Xrotation
        JOINT LeftShoulder
        {
          OFFSET 7.550562 1.41573 9.438202
          CHANNELS 3 Zrotation Yrotation Xrotation
          JOINT LeftArm
          {
            OFFSET 9.155056 0 4.247191
            CHANNELS 3 Zrotation Yrotation Xrotation
            JOINT LeftForearm
            {
              OFFSET 0 0 25.771955
              CHANNELS 3 Zrotation Yrotation Xrotation
              JOINT LeftHand
              {
                OFFSET 0 0 25.197169
                CHANNELS 3 Zrotation Yrotation Xrotation
              }
            }
          }
        }
        JOINT RightShoulder
        {
          OFFSET -7.550562 1.41573 9.438202
          CHANNELS 3 Zrotation Yrotation Xrotation
          JOINT RightArm
          {
            OFFSET -9.155056 0 4.247191
            CHANNELS 3 Zrotation Yrotation Xrotation
            JOINT RightForearm
            {
              OFFSET 0 0 -25.771955
              CHANNELS 3 Zrotation Yrotation Xrotation
              JOINT RightHand
              {
                OFFSET 0 0 -25.197169
                CHANNELS 3 Zrotation Yrotation Xrotation
              }
            }
          }
        }
        JOINT Neck
        {
          OFFSET 0 0 15.101124
          CHANNELS 3 Zrotation Yrotation Xrotation
          JOINT Head
          {
            OFFSET 0 0 11.325843
            CHANNELS 3 Zrotation Yrotation Xrotation
            End Site
            {
              OFFSET 0 0 14.157303
            }
          }
        }
      }
    }
  }
}
MOTION
Frames: 11
Frame Time: 0.0
0.0  89.887642  0.0  15.629695  -3.681454  -113.411123  34.380621  -2.466515  -64.891777  -6.834039  31.115721  97.666223  1.680152  0.158822  -2.031239  -2.953712  13.51232  13.241486  3.758534  1.802183  12.16234  9.308818  2.899941  3.589846  2.281628  0.535174  1.460608  6.267086  1.32304  4.039307  6.267086  1.32304  4.039307  -10.498265  25.467867  14.630564  -169.209169  61.824673  -122.492938  -21.296041  -25.224897  62.500607  85.992402  15.152739  28.375863  -2.035598  4.812291  21.305042  71.172284  47.900435  -4.781824  -26.13874  7.610121  -57.348688  72.00523  -7.233359  -12.163501  -15.455794  7.165583  3.714411  -11.620881  5.284605  2.966527  
0.0  89.887642  0.0  15.373472  -3.220901  -112.817156  34.327374  -2.357584  -64.523575  -6.515361  30.953341  97.721212  1.540498  0.164288  -2.038366  -2.794904  13.103063  12.854705  3.445392  1.827911  12.014944  9.185089  2.876069  3.644008  2.288609  0.54347  1.467437  6.286817  1.344602  4.058886  6.286817  1.344602  4.058886  -10.424843  25.291648  14.597066  -169.484075  61.808525  -122.731995  -21.580319  -24.888411  62.702586  86.943708  15.825898  29.10638  -2.630425  4.868614  20.740877  70.814615  47.543771  -4.385539  -26.223761  7.146273  -57.684734  72.18716  -7.24793  -12.495042  -15.811923  6.994437  3.437747  -11.884066  5.161276  2.759113  
0.0  89.887642  0.0  15.095922  -2.795738  -112.19201  34.288446  -2.253714  -64.169779  -6.165138  30.750743  97.814606  1.397638  0.176605  -2.053554  -2.612929  12.673012  12.348846  3.19868  1.860395  11.97416  9.018996  2.844546  3.676566  2.297382  0.547208  1.488413  6.311423  1.352252  4.116697  6.311423  1.352252  4.116697  -10.410411  25.102647  14.412071  -169.950395  61.777676  -123.077397  -22.110499  -24.390426  63.160057  88.293856  16.613194  30.134171  -2.736724  4.868025  20.338269  69.989451  47.352622  -4.225853  -26.393366  6.837654  -58.011359  72.392781  -7.056084  -12.592657  -16.184261  6.800743  3.044711  -12.158222  5.024337  2.463808  
0.0  89.887642  0.0  14.798685  -2.387191  -111.499288  34.262733  -2.083562  -63.752048  -5.87351  30.439738  97.838016  1.256829  0.190238  -2.068782  -2.438039  12.159262  11.798727  3.004076  1.955172  11.971644  8.859178  2.8292  3.680567  2.280617  0.55731  1.499816  6.266489  1.379793  4.148496  6.26649  1.379793  4.148497  -10.236513  24.841932  14.197676  -170.519397  61.727278  -123.591828  -22.685901  -23.779321  63.611342  90.021636  17.286302  31.381049  -2.88694  4.828488  19.961165  69.280964  47.269177  -4.105245  -26.459314  6.491781  -58.441005  72.519998  -6.84676  -12.638103  -16.377014  6.588861  2.637836  -12.297954  4.875282  2.15535  
0.0  89.887642  0.0  14.472982  -1.942782  -110.760018  34.182071  -1.928498  -63.219612  -5.580533  30.078755  97.729741  1.138807  0.217068  -2.076023  -2.556856  11.67377  11.101321  2.674215  2.108123  11.955663  8.910304  2.850581  3.66139  2.29029  0.556149  1.518535  6.293203  1.374224  4.199691  6.293203  1.374224  4.199691  -10.316382  24.569357  13.908079  -171.266759  61.681772  -124.243609  -23.160699  -23.305254  64.149601  91.79466  18.177965  32.53172  -3.026467  4.856961  19.541319  68.423293  47.236191  -3.997353  -26.663972  6.107277  -58.96186  72.488047  -6.699674  -12.761113  -16.75846  6.388824  2.12203  -12.578184  4.737766  1.767355  
0.0  89.887642  0.0  14.145589  -1.435995  -109.944551  34.113155  -1.770941  -62.633432  -5.248771  29.759443  97.544643  1.006369  0.247336  -2.074767  -2.709866  11.280009  10.43694  2.836748  2.227018  12.290345  8.621053  2.845359  3.314344  2.278566  0.55868  1.510856  6.261186  1.382612  4.178738  6.261186  1.382612  4.178738  -10.252571  24.26205  13.716518  -172.243422  61.598001  -125.120096  -23.237106  -23.290826  64.758198  93.264542  19.215748  33.438599  -3.145313  4.774436  19.179624  67.463784  47.250964  -3.863214  -26.731588  5.591248  -59.585815  72.362336  -6.548474  -12.944753  -16.948161  6.226272  1.68136  -12.715841  4.62737  1.43443  
0.0  89.887642  0.0  13.7836  -0.948546  -109.132445  34.119845  -1.65846  -61.925925  -4.94526  29.472801  97.23614  0.881261  0.285004  -2.060949  -3.315034  10.869486  9.53564  2.399885  2.413194  12.329441  8.781069  2.972334  3.23594  2.276894  0.5531  1.500137  6.256048  1.368508  4.148896  6.256048  1.368508  4.148897  -10.222108  23.876677  13.494468  -173.567577  61.493445  -126.190793  -22.931295  -23.65502  65.338343  94.398783  20.464152  33.984484  -3.174713  4.735532  18.877302  66.751369  47.208463  -3.609685  -27.170145  5.095258  -60.265019  72.211605  -6.419871  -13.156307  -17.3064  6.036664  1.197469  -12.979654  4.497903  1.069875  
0.0  89.887642  0.0  13.395841  -0.347569  -108.290638  34.075407  -1.526805  -61.101832  -4.678744  29.191253  96.826951  0.738045  0.334616  -2.049365  -4.09649  10.530135  8.636762  1.79871  2.627917  12.201237  8.946694  3.020333  3.069058  2.253352  0.567908  1.521698  6.193112  1.408387  4.20874  6.193112  1.408387  4.20874  -10.225986  23.28049  13.002358  -175.313747  61.395634  -127.526794  -22.614553  -24.139451  65.964091  95.610264  21.71875  34.483731  -3.491023  4.467293  18.224102  66.441559  47.122194  -3.198575  -27.617382  4.662835  -60.97115  72.06215  -6.31563  -13.367513  -17.581686  5.74696  0.620199  -13.181024  4.296603  0.631283  
0.0  89.887642  0.0  12.970962  0.224221  -107.54468  34.068354  -1.518706  -60.126894  -4.37461  28.885665  96.378107  0.579351  0.381335  -2.039754  -4.674403  10.082732  7.905607  1.252491  2.712554  12.135569  9.188628  3.10065  2.972946  2.22927  0.564367  1.559192  6.127806  1.39678  4.31033  6.127806  1.39678  4.31033  -10.227661  22.702203  12.489497  -177.301274  61.348419  -129.016339  -22.462321  -24.583985  66.644957  97.009897  22.86138  35.112163  -3.466937  4.321808  17.702632  65.66451  47.122507  -3.058311  -28.155795  4.196289  -61.797057  71.883289  -6.259961  -13.560476  -17.949217  5.43589  -0.01165  -13.451674  4.081426  0.151583  
0.0  89.887642  0.0  12.496587  0.910308  -106.736862  33.919842  -1.485894  -59.104587  -4.049169  28.517813  95.88343  0.428599  0.429988  -2.023463  -5.546429  9.755173  6.880776  0.711061  2.926116  12.057683  9.583909  2.978324  3.013508  2.227315  0.534233  1.599704  6.121161  1.310899  4.418087  6.121161  1.310899  4.418087  -10.464798  22.139301  11.972531  -179.580304  61.175761  -130.475922  -22.391068  -25.312503  67.278244  98.250816  23.785529  36.035306  -3.824006  4.252362  17.119406  64.71531  47.163514  -3.088378  -28.542243  3.694294  -62.714083  71.6213  -6.155883  -13.734126  -18.474204  5.16298  -0.712956  -13.840238  3.898001  -0.378234  
0.0  89.887642  0.0  12.041146  1.604275  -105.950427  33.714946  -1.491319  -57.926566  -3.655353  28.080284  95.337793  0.276001  0.467602  -2.013542  -6.019443  9.347662  6.072731  0.215775  2.867989  12.09541  9.648307  2.971577  2.912682  2.236905  0.515213  1.617285  6.146352  1.256704  4.464472  6.146352  1.256704  4.464472  -10.666658  21.499676  11.711387  178.191654  61.009631  -131.881083  -22.373095  -26.150009  68.04755  99.241556  24.432671  37.225025  -4.135785  4.157121  16.750994  63.685199  47.227677  -3.216888  -29.015177  3.135738  -63.719675  71.242675  -5.998253  -13.842903  -19.058854  4.840429  -1.311428  -14.275298  3.675461  -0.83259  
